<svg xmlns="http://www.w3.org/2000/svg" viewBox="0 0 512 512">
  <rect width="512" height="512" rx="100" fill="#7AB8CC"/>
  <rect width="512" height="320" rx="0" fill="#7AB8CC"/>
  <rect y="0" width="512" height="100" rx="100" fill="#7AB8CC"/>
  <circle cx="390" cy="115" r="52" fill="#F5C842"/>
  <circle cx="390" cy="115" r="68" fill="#F5C842" opacity="0.18"/>
  <ellipse cx="130" cy="90" rx="55" ry="26" fill="white" opacity="0.7"/>
  <ellipse cx="155" cy="78" rx="38" ry="22" fill="white" opacity="0.7"/>
  <ellipse cx="100" cy="82" rx="32" ry="18" fill="white" opacity="0.6"/>
  <ellipse cx="300" cy="68" rx="42" ry="20" fill="white" opacity="0.5"/>
  <ellipse cx="320" cy="57" rx="28" ry="16" fill="white" opacity="0.5"/>
  <rect y="290" width="512" height="222" fill="#7A6040"/>
  <rect y="290" width="512" height="15" rx="0" fill="#8B7050"/>
  <rect y="318" width="512" height="12" rx="4" fill="#6B5030" opacity="0.7"/>
  <rect y="345" width="512" height="12" rx="4" fill="#6B5030" opacity="0.7"/>
  <rect y="372" width="512" height="12" rx="4" fill="#6B5030" opacity="0.7"/>
  <rect y="399" width="512" height="12" rx="4" fill="#6B5030" opacity="0.7"/>
  <rect y="426" width="512" height="12" rx="4" fill="#6B5030" opacity="0.7"/>
  <rect y="460" width="512" height="52" rx="100" fill="#6B5030"/>
  <rect x="72" y="230" width="14" height="72" rx="4" fill="#5A3A20"/>
  <ellipse cx="79" cy="215" rx="28" ry="38" fill="#2E4F26"/>
  <ellipse cx="79" cy="235" rx="32" ry="28" fill="#2E4F26"/>
  <rect x="168" y="248" width="10" height="54" rx="3" fill="#5A3A20"/>
  <ellipse cx="173" cy="234" rx="20" ry="28" fill="#3A5F30"/>
  <ellipse cx="173" cy="248" rx="24" ry="20" fill="#3A5F30"/>
  <rect x="410" y="235" width="13" height="67" rx="4" fill="#5A3A20"/>
  <ellipse cx="417" cy="218" rx="26" ry="36" fill="#2E4F26"/>
  <ellipse cx="417" cy="238" rx="30" ry="25" fill="#2E4F26"/>
  <text x="256" y="490" font-family="Georgia, serif" font-size="72" font-weight="bold" text-anchor="middle" fill="#E8D5A3" opacity="0.9">campo</text>
</svg>